<svg width="190" height="36" viewBox="0 0 190 36" fill="none" xmlns="http://www.w3.org/2000/svg">
<path d="M60.0625 25.7454L57.0145 32.1316L53.9651 25.7454H52.1357V34.2916H53.6604V28.4689L56.4038 34.2916H57.6238L60.3672 28.5629V34.2916H61.7903V25.7454H60.0625Z" fill="#332702"/>
<path d="M67.7861 25.7454L63.9243 34.2916H65.6521L68.5986 27.6237L69.8186 30.4411H68.2939L67.7861 31.7559H70.4279L71.5464 34.2916H73.3758L69.4124 25.7454H67.7861Z" fill="#332702"/>
<path d="M76.3223 31.7559C76.3223 32.6012 75.916 32.9768 74.7976 32.9768H74.4929V34.2916H74.7976C77.4407 34.2916 78.0501 32.8829 78.0501 31.7559V25.7454H76.3223V31.7559Z" fill="#332702"/>
<path d="M81.3025 34.2916H82.9274V25.7454H81.3025V34.2916Z" fill="#332702"/>
<path d="M89.6355 25.7454H86.1799V34.2916H89.6355C92.6836 34.2916 94.2082 32.7889 94.2082 29.7838C94.2082 27.0602 92.6836 25.7454 89.6355 25.7454ZM89.6355 32.9768H87.8062V27.0602H89.6355C91.668 27.0602 92.582 27.9055 92.582 29.7838C92.582 31.9438 91.668 32.9768 89.6355 32.9768Z" fill="#332702"/>
<path d="M104.37 25.7454L100.407 34.2916H102.135L105.081 27.6237L106.403 30.4411H104.777L104.269 31.7559H106.911L108.131 34.2916H109.858L105.895 25.7454H104.37Z" fill="#332702"/>
<path d="M111.993 25.7454V34.2916H118.192V32.9768H113.619V25.7454H111.993Z" fill="#332702"/>
<path d="M125.101 25.7454V34.2916H126.728V30.6289H131.097V29.3141H126.728V27.0602H131.3V25.7454H125.101Z" fill="#332702"/>
<path d="M139.739 30.9107C139.739 32.3194 139.021 33.0707 137.499 33.0707C135.874 33.0707 135.162 32.3194 135.162 30.9107V25.7455H133.536V30.9107C133.536 33.1647 134.857 34.3856 137.499 34.3856C140.037 34.3856 141.364 33.1647 141.364 30.9107V25.7455H139.739V30.9107Z" fill="#332702"/>
<path d="M143.598 25.7454V27.0602H146.442V34.2916H148.067V27.0602H150.815V25.7454H143.598Z" fill="#332702"/>
<path d="M152.44 25.7454V27.0602H155.189V34.2916H156.814V27.0602H159.549V25.7454H152.44Z" fill="#332702"/>
<path d="M164.018 25.7454L160.064 34.2916H161.783L164.735 27.6237L166.062 30.4411H164.424L164.018 31.7559H166.672L167.782 34.2916H169.515L165.656 25.7454H164.018Z" fill="#332702"/>
<path d="M171.844 34.2916H173.469V25.7454H171.844V34.2916Z" fill="#332702"/>
<path d="M184.545 25.7454L181.607 32.1316L178.56 25.7454H176.732V34.2916H178.249V28.4689L180.998 34.2916H182.216L184.857 28.5629V34.2916H186.387V25.7454H184.545Z" fill="#332702"/>
<path d="M70.0217 22.834H71.648V21.1441H70.0217V22.834Z" fill="#332702"/>
<path d="M74.5943 21.1441H72.8665V22.834H74.5943V21.1441Z" fill="#332702"/>
<path d="M109.554 8.46518H107.928V10.249H109.554V8.46518Z" fill="#332702"/>
<path d="M127.032 16.9179V9.68649H125.406V16.4479C125.406 17.1054 125.406 17.5754 125.203 17.7629C125.101 18.1379 124.695 18.2329 124.086 18.2329H111.484C111.077 18.2329 110.773 18.2329 110.468 18.0441C110.976 17.7629 111.382 17.3866 111.79 16.8241C112.196 16.2604 112.399 15.6028 112.399 14.8516C112.399 14.0066 112.094 13.2553 111.484 12.5978C110.773 11.9403 109.859 11.564 108.639 11.564C107.522 11.564 106.606 11.9403 105.895 12.5978C105.285 13.1603 104.98 14.0066 104.98 14.8516C104.98 15.6028 105.183 16.2604 105.591 16.8241C105.895 17.3866 106.403 17.7629 106.911 18.0441C106.606 18.2329 106.2 18.2329 105.895 18.2329H95.6314C95.6314 18.0441 95.6314 17.9504 95.6314 17.7629C95.6314 14.2878 94.2082 12.5978 91.4649 12.5978C89.6355 12.5978 87.7046 13.8178 86.4846 15.7903L86.7893 9.68649H85.0615V18.2329H74.3913C74.4929 17.8566 74.4929 17.3866 74.4929 16.9179V12.5978H72.9682V16.4479C72.9682 17.1054 72.8666 17.5754 72.7651 17.7629C72.562 18.1379 72.1558 18.2329 71.5464 18.2329H66.6677C65.1443 18.2329 64.1274 17.3866 64.0259 16.0729C63.8228 13.8178 62.5012 12.5978 60.4687 12.5978H55.7945C53.3558 12.5978 52.1357 14.0066 52.1357 16.9179V22.0828H53.762V16.9179C53.762 15.0391 54.5744 13.9128 55.7945 13.9128H57.5223C57.0145 14.5691 56.81 15.2266 56.81 16.1666C56.81 18.3266 58.2331 19.6404 60.3672 19.6404C61.6887 19.6404 62.7043 19.1717 63.315 18.2329C63.9243 19.2654 65.1443 19.7354 66.7692 19.7354H104.878C105.895 19.7354 106.505 19.7354 106.809 19.6404C107.419 19.5467 108.029 19.3592 108.74 18.9841C109.35 19.3592 109.96 19.5467 110.57 19.6404C110.874 19.7354 111.484 19.7354 112.399 19.7354H124.492C125.609 19.7354 127.032 19.2654 127.032 16.9179ZM108.639 12.9728C109.248 12.9728 109.757 13.1603 110.163 13.4428C110.468 13.8178 110.671 14.1941 110.671 14.7578C110.671 15.2266 110.468 15.6966 110.163 16.1666C109.757 16.6354 109.35 17.0116 108.74 17.1991C108.029 17.0116 107.522 16.6354 107.215 16.1666C106.911 15.6966 106.708 15.2266 106.708 14.7578C106.708 13.6303 107.522 12.9728 108.639 12.9728ZM93.9036 17.5754C93.9036 17.7629 93.9036 18.0441 93.9036 18.2329H86.5861C87.3999 15.9778 89.6355 13.9128 91.4649 13.9128C92.9882 13.9128 93.9036 15.3203 93.9036 17.5754ZM60.3672 18.2329C59.3516 18.2329 58.6394 17.4804 58.6394 16.1666C58.6394 14.7578 59.3516 14.0066 60.4687 14.0066C61.4856 14.0066 62.095 14.7578 62.095 16.0729C62.095 18.0441 61.181 18.2329 60.3672 18.2329Z" fill="#332702"/>
<path d="M131.402 9.68649H129.776V19.7354H131.402V9.68649Z" fill="#332702"/>
<path d="M159.955 18.0441C159.955 14.8516 157.829 12.7853 154.471 12.7853C152.643 12.7853 151.221 13.3491 150.301 14.3816L150.206 14.5691L150.301 14.7578C150.815 15.2266 151.113 15.5091 151.316 15.6028L151.519 15.8841L151.722 15.6028C152.237 14.6641 153.144 14.1941 154.471 14.1941C156.814 14.1941 158.127 15.5091 158.127 17.9504C158.127 18.0441 158.127 18.1379 158.127 18.2329H143.287C142.989 14.4753 141.161 12.5978 137.702 12.5978H137.499V14.0066H138.11C139.427 14.1003 140.24 14.5691 140.849 15.4153C141.364 16.0729 141.567 17.1054 141.662 18.2329H135.365V19.7354H159.955V18.0441Z" fill="#332702"/>
<path d="M155.595 21.0491H153.957V22.834H155.595V21.0491Z" fill="#332702"/>
<path d="M164.126 19.7354H179.982C180.591 20.5804 181.607 21.0491 182.826 21.0491C183.936 21.0491 184.857 20.6741 185.466 19.9229C186.075 19.2654 186.387 18.4203 186.387 17.4803C186.387 16.3541 186.075 15.509 185.466 14.9453C184.857 14.194 183.936 13.9128 182.826 13.9128C181.702 13.9128 180.794 14.194 180.185 14.8515C179.576 15.6028 179.17 16.4478 179.17 17.4803C179.17 17.7628 179.264 17.9503 179.264 18.2328C173.78 18.2328 164.627 18.2328 164.329 18.2328C164.017 18.1378 163.72 18.0441 163.611 17.8566C163.408 17.5753 163.313 17.1991 163.313 16.5416V9.68645H161.688V17.1991C161.688 18.0441 161.986 18.6078 162.501 19.0779C162.907 19.5466 163.408 19.7354 164.126 19.7354ZM182.826 19.6404C182.216 19.6404 181.81 19.4529 181.499 18.9841C181.201 18.6078 180.998 18.1378 180.998 17.4803C180.998 16.8241 181.201 16.3541 181.499 15.884C181.81 15.509 182.216 15.2265 182.92 15.2265C183.53 15.2265 183.936 15.4153 184.247 15.884C184.45 16.2603 184.545 16.7291 184.545 17.2928C184.545 18.8891 184.044 19.6404 182.826 19.6404Z" fill="#332702"/>
<path d="M22.4624 2.0788C21.6486 2.36005 20.9378 2.64256 19.7177 3.30007C14.9416 6.02387 12.8076 11.0952 12.6044 15.9778C12.6044 16.2603 12.6044 16.5415 12.6044 16.824V17.0116V34.2916H18.8037V17.0116C18.8037 15.884 19.3115 14.9453 20.2255 14.2878L22.6656 17.0116L25.1042 14.2878C25.9167 14.9453 26.4245 15.884 26.4245 17.0116V34.2916H32.6248V17.0116C32.6248 11.8465 28.1523 7.7139 22.6656 7.7139C21.344 7.7139 20.0224 7.99515 18.9053 8.3714C20.2255 7.05638 22.1564 6.30512 24.1889 6.30512C24.9011 6.30512 25.5105 6.30512 26.2214 6.39887C31.7094 7.24389 35.8759 11.564 35.8759 16.6353C35.9775 16.824 35.9775 17.0115 35.9775 17.2928V34.2916H42.1764C42.1764 34.2916 42.1764 17.1991 42.1764 17.1053C42.1764 9.68643 37.299 3.67508 29.0676 1.98505C28.763 1.8913 28.2538 1.79755 27.8476 1.79755C27.2383 1.7038 26.5274 1.60879 25.9167 1.60879C24.5965 1.60879 23.5796 1.8913 22.4624 2.0788ZM21.2424 1.42129C10.5719 1.42129 3.15332 7.99515 3.15332 16.824V34.2916H9.35242C9.35242 34.2916 9.35242 24.7123 9.35242 16.824C9.35242 8.65266 16.0596 2.73631 22.8687 1.51504C23.0718 1.51504 23.478 1.42129 23.0718 1.42129H21.2424Z" fill="#AF9247"/>
</svg>
