<svg width="82" height="17" viewBox="0 0 82 17" fill="none" xmlns="http://www.w3.org/2000/svg">
<path d="M11.2009 7.84946C12.8399 8.65058 13.6594 9.90003 13.6594 11.5978C13.6594 13.0163 13.167 14.1261 12.1821 14.9272C11.1972 15.721 9.8449 16.1179 8.12508 16.1179H0V0.308687H7.71717C9.32675 0.308687 10.624 0.70557 11.6088 1.49934C12.601 2.28575 13.0971 3.32206 13.0971 4.60825C13.0971 6.04879 12.4651 7.12919 11.2009 7.84946ZM7.71717 3.51682H3.66014V6.68086H7.71717C8.21695 6.68086 8.62853 6.52285 8.95192 6.20681C9.2753 5.89077 9.43699 5.50859 9.43699 5.06026C9.43699 4.60458 9.2753 4.22974 8.95192 3.93576C8.62853 3.64177 8.21695 3.50213 7.71717 3.51682ZM8.12508 12.8877C8.68365 12.8877 9.12463 12.7333 9.44802 12.4246C9.77141 12.116 9.9331 11.7227 9.9331 11.245C9.9331 10.7452 9.77508 10.3484 9.45904 10.0544C9.14301 9.76038 8.69835 9.61339 8.12508 9.61339H3.66014V12.8877H8.12508Z" fill="black"/>
<path d="M19.4473 12.6892H26.8778V16.1179H15.6989V0.308687H19.4473V12.6892Z" fill="black"/>
<path d="M41.9814 14.0893C40.3939 15.6548 38.3948 16.4376 35.9841 16.4376C33.5807 16.4376 31.5853 15.6548 29.9977 14.0893C28.4102 12.5239 27.6164 10.5688 27.6164 8.2243C27.6164 5.8724 28.4102 3.91371 29.9977 2.34822C31.5853 0.782741 33.5807 0 35.9841 0C38.3948 0 40.3939 0.782741 41.9814 2.34822C43.5689 3.91371 44.3627 5.8724 44.3627 8.2243C44.3627 10.5688 43.5689 12.5239 41.9814 14.0893ZM32.6657 11.6309C33.5109 12.5275 34.617 12.9759 35.9841 12.9759C37.3584 12.9759 38.4646 12.5275 39.3024 11.6309C40.1477 10.7269 40.5703 9.59134 40.5703 8.2243C40.5703 6.84991 40.1477 5.71071 39.3024 4.80669C38.4646 3.90268 37.3584 3.45068 35.9841 3.45068C34.617 3.45068 33.5109 3.90268 32.6657 4.80669C31.8278 5.71071 31.4089 6.84991 31.4089 8.2243C31.4089 9.59134 31.8278 10.7269 32.6657 11.6309Z" fill="black"/>
<path d="M60.216 14.0893C58.6284 15.6548 56.6293 16.4376 54.2186 16.4376C51.8153 16.4376 49.8198 15.6548 48.2323 14.0893C46.6448 12.5239 45.851 10.5688 45.851 8.2243C45.851 5.8724 46.6448 3.91371 48.2323 2.34822C49.8198 0.782741 51.8153 0 54.2186 0C56.6293 0 58.6284 0.782741 60.216 2.34822C61.8035 3.91371 62.5973 5.8724 62.5973 8.2243C62.5973 10.5688 61.8035 12.5239 60.216 14.0893ZM50.9002 11.6309C51.7455 12.5275 52.8516 12.9759 54.2186 12.9759C55.593 12.9759 56.6991 12.5275 57.537 11.6309C58.3822 10.7269 58.8048 9.59134 58.8048 8.2243C58.8048 6.84991 58.3822 5.71071 57.537 4.80669C56.6991 3.90268 55.593 3.45068 54.2186 3.45068C52.8516 3.45068 51.7455 3.90268 50.9002 4.80669C50.0624 5.71071 49.6434 6.84991 49.6434 8.2243C49.6434 9.59134 50.0624 10.7269 50.9002 11.6309Z" fill="black"/>
<path d="M77.8993 0.308687H81.4713V16.1179H77.7229V6.85726L73.0706 13.2074L68.4403 6.85726V16.1179H64.6919V0.308687H68.2528L73.0926 7.33131L77.8993 0.308687Z" fill="black"/>
</svg>
