<svg width="97" height="28" viewBox="0 0 97 28" fill="none" xmlns="http://www.w3.org/2000/svg">
<path d="M4.52246 23.226H22.8259V4.7464H4.52246V23.226Z" fill="white"/>
<path d="M22.2334 22.6496L15.5878 17.0288C15.5878 17.0288 14.691 16.1481 13.6822 16.1481C12.6573 16.1481 11.7605 17.0288 11.7605 17.0288L5.11491 22.6496L5.09889 22.6336L10.6716 15.9239C10.6716 15.9239 11.5524 15.0111 11.5524 13.9862C11.5524 12.9614 10.6716 12.0646 10.6716 12.0646L5.09889 5.33893L5.11491 5.32292L11.7605 10.9597C11.7605 10.9597 12.6573 11.8564 13.6822 11.8564C14.691 11.8564 15.5878 10.9597 15.5878 10.9597L22.2334 5.32292L22.2654 5.35494L16.6767 12.0646C16.6767 12.0646 15.812 12.9774 15.812 13.9862C15.812 15.0111 16.6767 15.9239 16.6767 15.9239L22.2654 22.6336L22.2334 22.6496ZM25.34 13.9862C25.34 12.1607 25.4201 10.5433 26.7492 7.67691C27.1335 6.8442 27.9823 5.62718 26.7332 4.21799C25.7083 3.19312 24.5554 3.35325 23.7707 3.81765C24.2191 3.03298 24.3952 1.84798 23.3704 0.823112C21.9772 -0.441958 20.7601 0.422773 19.9435 0.807098C17.1091 2.15224 15.5077 2.2323 13.6982 2.2323C11.8886 2.2323 10.2713 2.15224 7.45289 0.807098C6.63619 0.422773 5.41916 -0.441958 4.02599 0.823112C3.00112 1.86399 3.17727 3.03298 3.62565 3.81765C2.84098 3.35325 1.67199 3.19312 0.663139 4.21799C-0.601932 5.62718 0.262801 6.8442 0.647126 7.67691C1.99226 10.5433 2.07233 12.1767 2.07233 13.9862C2.07233 15.8118 1.99226 17.4452 0.647126 20.3116C0.262801 21.1443 -0.585918 22.3613 0.663139 23.7705C1.68801 24.7954 2.857 24.6192 3.62565 24.1709C3.17727 24.9555 3.00112 26.1405 4.02599 27.1654C5.41916 28.4465 6.63619 27.5817 7.45289 27.1814C10.2873 25.8363 11.8886 25.7562 13.6982 25.7562C15.5077 25.7562 17.1091 25.8203 19.9435 27.1814C20.7601 27.5657 21.9772 28.4305 23.3704 27.1654C24.3952 26.1405 24.2191 24.9715 23.7707 24.1709C24.5554 24.6192 25.7083 24.7954 26.7332 23.7705C27.9983 22.3613 27.1335 21.1283 26.7492 20.3116C25.4041 17.4452 25.34 15.8118 25.34 13.9862Z" fill="#FF3333"/>
<path d="M47.0063 24.7154C49.2802 23.8988 52.0986 19.9754 51.6342 13.7942C51.1858 7.82113 48.9279 3.12915 42.9228 2.68077C42.9228 2.68077 41.7858 2.6007 40.825 2.6007C39.8002 2.6007 39.592 2.55266 39.5119 3.6576C39.3838 5.72335 39.3358 21.801 39.4799 24.1229C39.4959 24.4432 39.5279 25.2119 40.841 25.34C43.2271 25.5642 45.2127 25.372 47.0063 24.7154ZM44.6843 1.6559C49.7606 1.63989 56.4543 5.14686 56.4382 13.9543C56.4222 21.6088 50.9456 26.3168 45.9013 26.3168H33.0745L33.0905 26.0446C33.8111 25.9165 34.6278 25.4681 34.7559 24.9717C35.1883 23.1301 35.0762 6.26781 34.8199 3.49747C34.7399 2.63273 34.0673 2.07225 33.2346 1.92813L33.2026 1.67192C33.2026 1.6559 43.5313 1.67192 44.6843 1.6559ZM72.7881 20.2637C72.8842 14.9632 69.0409 13.554 65.0695 13.3458C64.9895 13.3458 65.0215 13.1376 65.0856 13.1376C66.3827 13.0896 71.523 12.4811 71.3148 7.51687C71.1067 2.68077 67.4716 2.56868 66.1425 2.55266C65.0535 2.53665 64.8293 2.53665 64.3649 2.56867C63.5963 2.6007 63.4041 2.66476 63.4041 3.49747C63.4041 3.60956 63.228 12.2088 63.1319 18.262C63.0839 21.5448 63.0678 24.0749 63.0678 24.0749C63.0839 24.6834 63.0198 25.2919 64.477 25.356C65.9983 25.4361 67.952 25.5001 69.3131 25.1959C70.5782 24.9396 72.708 24.0108 72.7881 20.2637ZM71.2187 13.1536C77.1918 14.6429 77.5601 19.0146 77.48 20.2316C77.2078 25.6923 72.6279 26.3168 70.7704 26.3168H56.6624L56.6784 26.0446C57.7033 25.9004 58.472 25.34 58.472 23.5144L58.552 4.71449C58.568 2.68077 58.0396 2.05624 56.9347 1.91212L56.9026 1.6559H67.5677C69.5213 1.6559 75.4303 1.25556 75.9267 6.7322C76.3431 11.1199 71.571 12.9615 71.2187 13.1536ZM94.2302 1.73597H94.4704L94.5505 6.12369H94.2783C93.8459 4.33017 92.1485 2.64874 88.7376 2.47259C84.7022 2.26442 82.9567 4.68247 82.9407 6.98842C82.9246 10.047 85.2786 10.6715 88.7696 11.5363C90.419 11.9366 96.5041 12.7533 96.0237 19.6712C95.6874 24.5073 91.556 26.7972 85.711 26.6211C85.711 26.6211 83.2769 26.541 79.8821 25.5962C79.2575 25.42 79.0814 25.6282 78.8412 26.0926L78.569 26.1086L78.585 21.3686L78.8572 21.3846C78.9853 21.865 79.0334 22.7618 79.8821 23.5144C80.5066 24.0749 81.9798 25.4521 85.2146 25.4841C88.3853 25.5321 91.0115 24.171 91.3638 20.5839C91.4599 19.6231 91.3638 17.3972 89.218 16.3884C87.5365 15.6037 82.8926 15.0753 80.6507 13.0896C80.6507 13.0896 77.9765 11.216 78.3928 7.69302C78.9853 2.72881 83.0848 1.49577 86.7679 1.4157C86.7679 1.4157 90.0667 1.38367 92.6929 2.07226C92.6929 2.07226 93.3335 2.24841 93.8619 2.04023C94.0541 1.96016 94.1662 1.81604 94.2302 1.73597Z" fill="black"/>
</svg>
