<svg width="196" height="38" viewBox="0 0 196 38" fill="none" xmlns="http://www.w3.org/2000/svg">
<path d="M62.234 27.1757L59.0731 33.9166L55.9108 27.1757H54.0137V36.1967H55.5948V30.0505L58.4398 36.1967H59.705L62.55 30.1497V36.1967H64.0258V27.1757H62.234Z" fill="white"/>
<path d="M70.2436 27.1757L66.2388 36.1967H68.0306L71.0862 29.1584L72.3514 32.1323H70.7702L70.2436 33.5201H72.9833L74.1432 36.1967H76.0403L71.9301 27.1757H70.2436Z" fill="white"/>
<path d="M79.0963 33.5201C79.0963 34.4124 78.6751 34.8089 77.5152 34.8089H77.1992V36.1967H77.5152C80.2562 36.1967 80.8881 34.7098 80.8881 33.5201V27.1757H79.0963V33.5201Z" fill="white"/>
<path d="M84.2607 36.1967H85.9458V27.1757H84.2607V36.1967Z" fill="white"/>
<path d="M92.9024 27.1757H89.3188V36.1967H92.9024C96.0633 36.1967 97.6445 34.6105 97.6445 31.4384C97.6445 28.5636 96.0633 27.1757 92.9024 27.1757ZM92.9024 34.8089H91.0053V28.5636H92.9024C95.0102 28.5636 95.958 29.4558 95.958 31.4384C95.958 33.7185 95.0102 34.8089 92.9024 34.8089Z" fill="white"/>
<path d="M108.183 27.1757L104.073 36.1967H105.865L108.921 29.1584L110.291 32.1323H108.605L108.078 33.5201H110.818L112.083 36.1967H113.875L109.765 27.1757H108.183Z" fill="white"/>
<path d="M116.087 27.1757V36.1967H122.516V34.8089H117.774V27.1757H116.087Z" fill="white"/>
<path d="M129.682 27.1757V36.1967H131.369V32.3305H135.9V30.9427H131.369V28.5636H136.111V27.1757H129.682Z" fill="white"/>
<path d="M144.861 32.6279C144.861 34.1149 144.117 34.9079 142.539 34.9079C140.854 34.9079 140.115 34.1149 140.115 32.6279V27.1757H138.429V32.6279C138.429 35.0071 139.799 36.2958 142.539 36.2958C145.17 36.2958 146.547 35.0071 146.547 32.6279V27.1757H144.861V32.6279Z" fill="white"/>
<path d="M148.864 27.1757V28.5636H151.813V36.1967H153.498V28.5636H156.348V27.1757H148.864Z" fill="white"/>
<path d="M158.033 27.1757V28.5636H160.884V36.1967H162.569V28.5636H165.405V27.1757H158.033Z" fill="white"/>
<path d="M170.039 27.1757L165.939 36.1967H167.722L170.784 29.1584L172.16 32.1323H170.461L170.039 33.5201H172.792L173.943 36.1967H175.74L171.738 27.1757H170.039Z" fill="white"/>
<path d="M178.156 36.1967H179.841V27.1757H178.156V36.1967Z" fill="white"/>
<path d="M191.327 27.1757L188.28 33.9166L185.121 27.1757H183.225V36.1967H184.798V30.0505L187.648 36.1967H188.912L191.65 30.1497V36.1967H193.237V27.1757H191.327Z" fill="white"/>
<path d="M72.562 24.1026H74.2485V22.3188H72.562V24.1026Z" fill="white"/>
<path d="M77.3045 22.3188H75.5127V24.1026H77.3045V22.3188Z" fill="white"/>
<path d="M113.559 8.93544H111.872V10.8183H113.559V8.93544Z" fill="white"/>
<path d="M131.684 17.8577V10.2246H129.998V17.3616C129.998 18.0556 129.998 18.5517 129.787 18.7497C129.682 19.1455 129.261 19.2458 128.629 19.2458H115.56C115.138 19.2458 114.822 19.2458 114.506 19.0465C115.033 18.7497 115.454 18.3525 115.877 17.7587C116.298 17.1637 116.509 16.4696 116.509 15.6766C116.509 14.7847 116.193 13.9917 115.56 13.2976C114.822 12.6036 113.874 12.2064 112.609 12.2064C111.451 12.2064 110.502 12.6036 109.764 13.2976C109.131 13.8914 108.815 14.7847 108.815 15.6766C108.815 16.4696 109.026 17.1637 109.448 17.7587C109.764 18.3525 110.291 18.7497 110.817 19.0465C110.502 19.2458 110.08 19.2458 109.764 19.2458H99.1202C99.1202 19.0465 99.1202 18.9476 99.1202 18.7497C99.1202 15.0815 97.6444 13.2976 94.7994 13.2976C92.9023 13.2976 90.8999 14.5854 89.6347 16.6675L89.9506 10.2246H88.1589V19.2458H77.0935C77.1989 18.8486 77.1989 18.3525 77.1989 17.8577V13.2976H75.6177V17.3616C75.6177 18.0556 75.5124 18.5517 75.4071 18.7497C75.1964 19.1455 74.7752 19.2458 74.1433 19.2458H69.0838C67.5041 19.2458 66.4495 18.3525 66.3442 16.9657C66.1336 14.5854 64.763 13.2976 62.6553 13.2976H57.8079C55.2789 13.2976 54.0137 14.7847 54.0137 17.8577V23.3096H55.7001V17.8577C55.7001 15.8745 56.5427 14.6857 57.8079 14.6857H59.5997C59.0731 15.3784 58.8611 16.0725 58.8611 17.0647C58.8611 19.3447 60.3369 20.7315 62.55 20.7315C63.9205 20.7315 64.9737 20.2367 65.607 19.2458C66.2389 20.3357 67.5041 20.8318 69.1891 20.8318H108.71C109.764 20.8318 110.396 20.8318 110.712 20.7315C111.344 20.6325 111.977 20.4346 112.715 20.0388C113.346 20.4346 113.98 20.6325 114.612 20.7315C114.928 20.8318 115.56 20.8318 116.509 20.8318H129.05C130.208 20.8318 131.684 20.3357 131.684 17.8577ZM112.609 13.6935C113.241 13.6935 113.769 13.8914 114.19 14.1896C114.506 14.5854 114.717 14.9826 114.717 15.5777C114.717 16.0725 114.506 16.5686 114.19 17.0647C113.769 17.5595 113.346 17.9567 112.715 18.1546C111.977 17.9567 111.451 17.5595 111.133 17.0647C110.817 16.5686 110.607 16.0725 110.607 15.5777C110.607 14.3875 111.451 13.6935 112.609 13.6935ZM97.3284 18.5517C97.3284 18.7497 97.3284 19.0465 97.3284 19.2458H89.74C90.584 16.8655 92.9023 14.6857 94.7994 14.6857C96.3792 14.6857 97.3284 16.1714 97.3284 18.5517ZM62.55 19.2458C61.4968 19.2458 60.7582 18.4515 60.7582 17.0647C60.7582 15.5777 61.4968 14.7847 62.6553 14.7847C63.7099 14.7847 64.3418 15.5777 64.3418 16.9657C64.3418 19.0465 63.3939 19.2458 62.55 19.2458Z" fill="white"/>
<path d="M136.216 10.2246H134.529V20.8318H136.216V10.2246Z" fill="white"/>
<path d="M165.827 19.0465C165.827 15.6766 163.622 13.4955 160.14 13.4955C158.244 13.4955 156.77 14.0906 155.815 15.1805L155.717 15.3784L155.815 15.5777C156.348 16.0725 156.657 16.3707 156.868 16.4696L157.079 16.7665L157.289 16.4696C157.823 15.4787 158.764 14.9826 160.14 14.9826C162.569 14.9826 163.931 16.3707 163.931 18.9476C163.931 19.0465 163.931 19.1455 163.931 19.2458H148.541C148.232 15.2795 146.336 13.2976 142.75 13.2976H142.539V14.7847H143.173C144.539 14.8836 145.381 15.3784 146.013 16.2717C146.547 16.9657 146.758 18.0556 146.856 19.2458H140.326V20.8318H165.827V19.0465Z" fill="white"/>
<path d="M161.305 22.2185H159.606V24.1026H161.305V22.2185Z" fill="white"/>
<path d="M170.152 20.8317H186.595C187.227 21.7237 188.28 22.2185 189.544 22.2185C190.695 22.2185 191.65 21.8227 192.282 21.0297C192.914 20.3356 193.237 19.4437 193.237 18.4514C193.237 17.2626 192.914 16.3706 192.282 15.7756C191.65 14.9826 190.695 14.6857 189.544 14.6857C188.379 14.6857 187.438 14.9826 186.806 15.6766C186.174 16.4696 185.753 17.3616 185.753 18.4514C185.753 18.7496 185.851 18.9475 185.851 19.2457C180.164 19.2457 170.671 19.2457 170.362 19.2457C170.039 19.1455 169.73 19.0465 169.618 18.8486C169.407 18.5517 169.309 18.1545 169.309 17.4605V10.2246H167.624V18.1545C167.624 19.0465 167.933 19.6416 168.467 20.1377C168.888 20.6325 169.407 20.8317 170.152 20.8317ZM189.544 20.7315C188.912 20.7315 188.491 20.5335 188.168 20.0387C187.859 19.6416 187.648 19.1455 187.648 18.4514C187.648 17.7587 187.859 17.2626 188.168 16.7665C188.491 16.3706 188.912 16.0724 189.642 16.0724C190.274 16.0724 190.695 16.2717 191.018 16.7665C191.229 17.1636 191.327 17.6584 191.327 18.2535C191.327 19.9385 190.808 20.7315 189.544 20.7315Z" fill="white"/>
<path d="M23.2416 2.19429C22.3976 2.49117 21.6604 2.78937 20.3952 3.48341C15.4422 6.35852 13.2291 11.7116 13.0184 16.8654C13.0184 17.1636 13.0184 17.4605 13.0184 17.7587V17.9566V36.1967H19.4473V17.9566C19.4473 16.7665 19.9739 15.7756 20.9218 15.0815L23.4522 17.9566L25.9812 15.0815C26.8237 15.7756 27.3503 16.7665 27.3503 17.9566V36.1967H33.7803V17.9566C33.7803 12.5046 29.1421 8.14244 23.4522 8.14244C22.0817 8.14244 20.7111 8.43932 19.5527 8.83648C20.9218 7.4484 22.9242 6.6554 25.0319 6.6554C25.7706 6.6554 26.4025 6.6554 27.1397 6.75436C32.831 7.64632 37.1518 12.2064 37.1518 17.5595C37.2571 17.7587 37.2571 17.9566 37.2571 18.2535V36.1967H43.6857C43.6857 36.1967 43.6857 18.1546 43.6857 18.0556C43.6857 10.2246 38.6277 3.87925 30.0914 2.09533C29.7754 1.99637 29.2474 1.89741 28.8262 1.89741C28.1943 1.79845 27.457 1.69817 26.8237 1.69817C25.4546 1.69817 24.4 1.99636 23.2416 2.19429ZM21.9764 1.50025C10.9106 1.50025 3.21729 8.43932 3.21729 17.7587V36.1967H9.64598C9.64598 36.1967 9.64598 26.0852 9.64598 17.7587C9.64598 9.13336 16.6015 2.88833 23.6628 1.59921C23.8735 1.59921 24.2947 1.50025 23.8735 1.50025H21.9764Z" fill="#AF9247"/>
</svg>
