<?xml version="1.0" standalone="no"?>
<!DOCTYPE svg PUBLIC "-//W3C//DTD SVG 20010904//EN"
 "http://www.w3.org/TR/2001/REC-SVG-20010904/DTD/svg10.dtd">
<svg version="1.0" xmlns="http://www.w3.org/2000/svg"
 width="260.000000pt" height="260.000000pt" viewBox="0 0 260.000000 260.000000"
 preserveAspectRatio="xMidYMid meet">
<metadata>
Created by potrace 1.11, written by Peter Selinger 2001-2013
</metadata>
<g transform="translate(0.000000,260.000000) scale(0.100000,-0.100000)"
fill="#000000" stroke="none">
<path d="M960 1441 c-52 -27 -80 -74 -80 -135 0 -94 62 -156 155 -156 93 0
155 62 155 156 0 88 -67 154 -155 154 -22 0 -56 -8 -75 -19z m140 -79 c41 -51
13 -133 -50 -147 -54 -12 -99 27 -100 86 0 86 99 127 150 61z"/>
<path d="M1315 1446 c-72 -32 -108 -113 -85 -189 23 -77 91 -116 180 -104 180
24 165 289 -17 304 -28 2 -61 -3 -78 -11z m110 -62 c26 -10 48 -62 41 -99 -16
-86 -129 -99 -162 -19 -33 79 39 149 121 118z"/>
<path d="M1977 1440 c-33 -26 -37 -78 -9 -103 23 -21 85 -22 102 -2 19 22 4
31 -26 15 -33 -18 -59 -3 -59 35 0 38 26 53 59 35 30 -16 47 -6 25 15 -26 26
-63 28 -92 5z"/>
<path d="M2142 1450 c-44 -18 -52 -99 -12 -120 31 -16 79 -11 100 10 54 54
-15 140 -88 110z m66 -32 c30 -30 0 -85 -41 -74 -31 7 -46 48 -27 71 15 18 51
20 68 3z"/>
<path d="M350 1299 l0 -152 107 5 c101 5 108 6 130 32 28 33 30 79 3 106 -19
19 -19 22 -5 43 22 31 19 64 -10 92 -22 23 -31 25 -125 25 l-100 0 0 -151z
m176 76 c10 -26 -16 -45 -62 -45 -42 0 -44 1 -44 30 0 29 1 30 50 30 36 0 52
-4 56 -15z m8 -118 c16 -26 -16 -47 -71 -47 -43 0 -43 0 -43 36 l0 35 51 -3
c37 -2 55 -8 63 -21z"/>
<path d="M650 1300 l0 -150 105 0 105 0 0 35 0 35 -70 0 -70 0 0 115 0 115
-35 0 -35 0 0 -150z"/>
<path d="M1580 1300 l0 -150 35 0 34 0 3 88 3 87 42 -58 41 -58 44 57 43 58 3
-87 3 -87 34 0 35 0 0 151 0 150 -37 -3 c-33 -3 -42 -10 -76 -58 -21 -30 -42
-56 -46 -58 -4 -1 -27 25 -50 58 -38 54 -46 60 -77 60 l-34 0 0 -150z"/>
</g>
</svg>
